<mxfile host="app.diagrams.net" agent="Mozilla/5.0 (Windows NT 10.0; Win64; x64) AppleWebKit/537.36 (KHTML, like Gecko) Chrome/134.0.0.0 Safari/537.36" version="26.1.1">
  <diagram name="Page-1" id="AfzbURLEgdIHtoufTlJx">
    <mxGraphModel dx="1433" dy="580" grid="1" gridSize="10" guides="1" tooltips="1" connect="1" arrows="1" fold="1" page="1" pageScale="1" pageWidth="827" pageHeight="1169" math="0" shadow="0">
      <root>
        <mxCell id="0" />
        <mxCell id="1" parent="0" />
        <mxCell id="c2UIK6nuIW9470Jx_kau-3" value="user" style="shape=table;startSize=30;container=1;collapsible=1;childLayout=tableLayout;fixedRows=1;rowLines=0;fontStyle=1;align=center;resizeLast=1;" vertex="1" parent="1">
          <mxGeometry x="250" y="860" width="265" height="250" as="geometry">
            <mxRectangle x="120" y="120" width="100" height="30" as="alternateBounds" />
          </mxGeometry>
        </mxCell>
        <mxCell id="c2UIK6nuIW9470Jx_kau-4" value="" style="shape=partialRectangle;collapsible=0;dropTarget=0;pointerEvents=0;fillColor=none;points=[[0,0.5],[1,0.5]];portConstraint=eastwest;top=0;left=0;right=0;bottom=1;" vertex="1" parent="c2UIK6nuIW9470Jx_kau-3">
          <mxGeometry y="30" width="265" height="30" as="geometry" />
        </mxCell>
        <mxCell id="c2UIK6nuIW9470Jx_kau-5" value="PK" style="shape=partialRectangle;overflow=hidden;connectable=0;fillColor=none;top=0;left=0;bottom=0;right=0;fontStyle=1;" vertex="1" parent="c2UIK6nuIW9470Jx_kau-4">
          <mxGeometry width="40" height="30" as="geometry">
            <mxRectangle width="40" height="30" as="alternateBounds" />
          </mxGeometry>
        </mxCell>
        <mxCell id="c2UIK6nuIW9470Jx_kau-6" value="user_id" style="shape=partialRectangle;overflow=hidden;connectable=0;fillColor=none;top=0;left=0;bottom=0;right=0;align=left;spacingLeft=6;fontStyle=5;" vertex="1" parent="c2UIK6nuIW9470Jx_kau-4">
          <mxGeometry x="40" width="225" height="30" as="geometry">
            <mxRectangle width="225" height="30" as="alternateBounds" />
          </mxGeometry>
        </mxCell>
        <mxCell id="c2UIK6nuIW9470Jx_kau-7" value="" style="shape=partialRectangle;collapsible=0;dropTarget=0;pointerEvents=0;fillColor=none;points=[[0,0.5],[1,0.5]];portConstraint=eastwest;top=0;left=0;right=0;bottom=0;" vertex="1" parent="c2UIK6nuIW9470Jx_kau-3">
          <mxGeometry y="60" width="265" height="160" as="geometry" />
        </mxCell>
        <mxCell id="c2UIK6nuIW9470Jx_kau-8" value="" style="shape=partialRectangle;overflow=hidden;connectable=0;fillColor=none;top=0;left=0;bottom=0;right=0;" vertex="1" parent="c2UIK6nuIW9470Jx_kau-7">
          <mxGeometry width="40" height="160" as="geometry">
            <mxRectangle width="40" height="160" as="alternateBounds" />
          </mxGeometry>
        </mxCell>
        <mxCell id="c2UIK6nuIW9470Jx_kau-9" value="firstName&#xa;lastName&#xa;passwoed&#xa;wallet&#xa;email&#xa;phoneNumber&#xa;type&#xa;registerDate&#xa;accountStatuse" style="shape=partialRectangle;overflow=hidden;connectable=0;fillColor=none;top=0;left=0;bottom=0;right=0;align=left;spacingLeft=6;" vertex="1" parent="c2UIK6nuIW9470Jx_kau-7">
          <mxGeometry x="40" width="225" height="160" as="geometry">
            <mxRectangle width="225" height="160" as="alternateBounds" />
          </mxGeometry>
        </mxCell>
        <mxCell id="c2UIK6nuIW9470Jx_kau-10" value="" style="endArrow=none;html=1;rounded=0;exitX=0.5;exitY=0;exitDx=0;exitDy=0;" edge="1" parent="1" source="c2UIK6nuIW9470Jx_kau-11">
          <mxGeometry width="50" height="50" relative="1" as="geometry">
            <mxPoint x="250" y="1230" as="sourcePoint" />
            <mxPoint x="390" y="1110" as="targetPoint" />
          </mxGeometry>
        </mxCell>
        <mxCell id="c2UIK6nuIW9470Jx_kau-11" value="admin" style="swimlane;whiteSpace=wrap;html=1;startSize=23;" vertex="1" parent="1">
          <mxGeometry x="140" y="1240" width="200" height="110" as="geometry" />
        </mxCell>
        <mxCell id="c2UIK6nuIW9470Jx_kau-12" value="" style="endArrow=none;html=1;rounded=0;exitX=0.5;exitY=0;exitDx=0;exitDy=0;" edge="1" parent="1" source="c2UIK6nuIW9470Jx_kau-13">
          <mxGeometry width="50" height="50" relative="1" as="geometry">
            <mxPoint x="530" y="1190" as="sourcePoint" />
            <mxPoint x="390" y="1110" as="targetPoint" />
          </mxGeometry>
        </mxCell>
        <mxCell id="c2UIK6nuIW9470Jx_kau-13" value="passenger" style="swimlane;whiteSpace=wrap;html=1;startSize=23;" vertex="1" parent="1">
          <mxGeometry x="480" y="1230" width="200" height="110" as="geometry" />
        </mxCell>
        <mxCell id="c2UIK6nuIW9470Jx_kau-14" value="ticket" style="shape=table;startSize=30;container=1;collapsible=1;childLayout=tableLayout;fixedRows=1;rowLines=0;fontStyle=1;align=center;resizeLast=1;" vertex="1" parent="1">
          <mxGeometry x="910" y="818" width="265" height="240" as="geometry">
            <mxRectangle x="120" y="120" width="100" height="30" as="alternateBounds" />
          </mxGeometry>
        </mxCell>
        <mxCell id="c2UIK6nuIW9470Jx_kau-15" value="" style="shape=partialRectangle;collapsible=0;dropTarget=0;pointerEvents=0;fillColor=none;points=[[0,0.5],[1,0.5]];portConstraint=eastwest;top=0;left=0;right=0;bottom=1;" vertex="1" parent="c2UIK6nuIW9470Jx_kau-14">
          <mxGeometry y="30" width="265" height="30" as="geometry" />
        </mxCell>
        <mxCell id="c2UIK6nuIW9470Jx_kau-16" value="PK" style="shape=partialRectangle;overflow=hidden;connectable=0;fillColor=none;top=0;left=0;bottom=0;right=0;fontStyle=1;" vertex="1" parent="c2UIK6nuIW9470Jx_kau-15">
          <mxGeometry width="20" height="30" as="geometry">
            <mxRectangle width="20" height="30" as="alternateBounds" />
          </mxGeometry>
        </mxCell>
        <mxCell id="c2UIK6nuIW9470Jx_kau-17" value="ticket_id" style="shape=partialRectangle;overflow=hidden;connectable=0;fillColor=none;top=0;left=0;bottom=0;right=0;align=left;spacingLeft=6;fontStyle=5;" vertex="1" parent="c2UIK6nuIW9470Jx_kau-15">
          <mxGeometry x="20" width="245" height="30" as="geometry">
            <mxRectangle width="245" height="30" as="alternateBounds" />
          </mxGeometry>
        </mxCell>
        <mxCell id="c2UIK6nuIW9470Jx_kau-18" value="" style="shape=partialRectangle;collapsible=0;dropTarget=0;pointerEvents=0;fillColor=none;points=[[0,0.5],[1,0.5]];portConstraint=eastwest;top=0;left=0;right=0;bottom=0;" vertex="1" parent="c2UIK6nuIW9470Jx_kau-14">
          <mxGeometry y="60" width="265" height="180" as="geometry" />
        </mxCell>
        <mxCell id="c2UIK6nuIW9470Jx_kau-19" value="" style="shape=partialRectangle;overflow=hidden;connectable=0;fillColor=none;top=0;left=0;bottom=0;right=0;" vertex="1" parent="c2UIK6nuIW9470Jx_kau-18">
          <mxGeometry width="20" height="180" as="geometry">
            <mxRectangle width="20" height="180" as="alternateBounds" />
          </mxGeometry>
        </mxCell>
        <mxCell id="c2UIK6nuIW9470Jx_kau-20" value="&lt;fk&gt;company_id&#xa;price&#xa;capacity&#xa;class&#xa;statuse&#xa;2-way&#xa;passengerCount&#xa;" style="shape=partialRectangle;overflow=hidden;connectable=0;fillColor=none;top=0;left=0;bottom=0;right=0;align=left;spacingLeft=6;" vertex="1" parent="c2UIK6nuIW9470Jx_kau-18">
          <mxGeometry x="20" width="245" height="180" as="geometry">
            <mxRectangle width="245" height="180" as="alternateBounds" />
          </mxGeometry>
        </mxCell>
        <mxCell id="c2UIK6nuIW9470Jx_kau-21" value="has" style="rhombus;whiteSpace=wrap;html=1;" vertex="1" parent="1">
          <mxGeometry x="810" y="690" width="80" height="80" as="geometry" />
        </mxCell>
        <mxCell id="c2UIK6nuIW9470Jx_kau-22" value="" style="endArrow=none;html=1;rounded=0;entryX=0;entryY=0.278;entryDx=0;entryDy=0;entryPerimeter=0;exitX=0.5;exitY=1;exitDx=0;exitDy=0;" edge="1" parent="1" source="c2UIK6nuIW9470Jx_kau-21" target="c2UIK6nuIW9470Jx_kau-18">
          <mxGeometry width="50" height="50" relative="1" as="geometry">
            <mxPoint x="870" y="830" as="sourcePoint" />
            <mxPoint x="920" y="780" as="targetPoint" />
          </mxGeometry>
        </mxCell>
        <mxCell id="c2UIK6nuIW9470Jx_kau-23" value="" style="endArrow=none;html=1;rounded=0;exitX=0.5;exitY=0;exitDx=0;exitDy=0;entryX=0.5;entryY=1;entryDx=0;entryDy=0;" edge="1" parent="1" source="c2UIK6nuIW9470Jx_kau-21" target="c2UIK6nuIW9470Jx_kau-24">
          <mxGeometry width="50" height="50" relative="1" as="geometry">
            <mxPoint x="870" y="700" as="sourcePoint" />
            <mxPoint x="960" y="620" as="targetPoint" />
          </mxGeometry>
        </mxCell>
        <mxCell id="c2UIK6nuIW9470Jx_kau-32" value="N" style="edgeLabel;html=1;align=center;verticalAlign=middle;resizable=0;points=[];" vertex="1" connectable="0" parent="c2UIK6nuIW9470Jx_kau-23">
          <mxGeometry x="-0.0888" y="1" relative="1" as="geometry">
            <mxPoint as="offset" />
          </mxGeometry>
        </mxCell>
        <mxCell id="c2UIK6nuIW9470Jx_kau-24" value="timing" style="shape=table;startSize=30;container=1;collapsible=1;childLayout=tableLayout;fixedRows=1;rowLines=0;fontStyle=1;align=center;resizeLast=1;" vertex="1" parent="1">
          <mxGeometry x="920" y="390" width="265" height="270" as="geometry">
            <mxRectangle x="120" y="120" width="100" height="30" as="alternateBounds" />
          </mxGeometry>
        </mxCell>
        <mxCell id="c2UIK6nuIW9470Jx_kau-25" value="" style="shape=partialRectangle;collapsible=0;dropTarget=0;pointerEvents=0;fillColor=none;points=[[0,0.5],[1,0.5]];portConstraint=eastwest;top=0;left=0;right=0;bottom=1;" vertex="1" parent="c2UIK6nuIW9470Jx_kau-24">
          <mxGeometry y="30" width="265" height="30" as="geometry" />
        </mxCell>
        <mxCell id="c2UIK6nuIW9470Jx_kau-26" value="PK" style="shape=partialRectangle;overflow=hidden;connectable=0;fillColor=none;top=0;left=0;bottom=0;right=0;fontStyle=1;" vertex="1" parent="c2UIK6nuIW9470Jx_kau-25">
          <mxGeometry width="20" height="30" as="geometry">
            <mxRectangle width="20" height="30" as="alternateBounds" />
          </mxGeometry>
        </mxCell>
        <mxCell id="c2UIK6nuIW9470Jx_kau-27" value="timing_id" style="shape=partialRectangle;overflow=hidden;connectable=0;fillColor=none;top=0;left=0;bottom=0;right=0;align=left;spacingLeft=6;fontStyle=5;" vertex="1" parent="c2UIK6nuIW9470Jx_kau-25">
          <mxGeometry x="20" width="245" height="30" as="geometry">
            <mxRectangle width="245" height="30" as="alternateBounds" />
          </mxGeometry>
        </mxCell>
        <mxCell id="c2UIK6nuIW9470Jx_kau-28" value="" style="shape=partialRectangle;collapsible=0;dropTarget=0;pointerEvents=0;fillColor=none;points=[[0,0.5],[1,0.5]];portConstraint=eastwest;top=0;left=0;right=0;bottom=0;" vertex="1" parent="c2UIK6nuIW9470Jx_kau-24">
          <mxGeometry y="60" width="265" height="180" as="geometry" />
        </mxCell>
        <mxCell id="c2UIK6nuIW9470Jx_kau-29" value="" style="shape=partialRectangle;overflow=hidden;connectable=0;fillColor=none;top=0;left=0;bottom=0;right=0;" vertex="1" parent="c2UIK6nuIW9470Jx_kau-28">
          <mxGeometry width="20" height="180" as="geometry">
            <mxRectangle width="20" height="180" as="alternateBounds" />
          </mxGeometry>
        </mxCell>
        <mxCell id="c2UIK6nuIW9470Jx_kau-30" value="date&#xa;ClockGo&#xa;ClockArrived&#xa;Delay" style="shape=partialRectangle;overflow=hidden;connectable=0;fillColor=none;top=0;left=0;bottom=0;right=0;align=left;spacingLeft=6;" vertex="1" parent="c2UIK6nuIW9470Jx_kau-28">
          <mxGeometry x="20" width="245" height="180" as="geometry">
            <mxRectangle width="245" height="180" as="alternateBounds" />
          </mxGeometry>
        </mxCell>
        <mxCell id="c2UIK6nuIW9470Jx_kau-31" value="1" style="text;html=1;align=center;verticalAlign=middle;resizable=0;points=[];autosize=1;strokeColor=none;fillColor=none;" vertex="1" parent="1">
          <mxGeometry x="870" y="790" width="30" height="30" as="geometry" />
        </mxCell>
        <mxCell id="c2UIK6nuIW9470Jx_kau-35" value="reservation" style="shape=table;startSize=30;container=1;collapsible=1;childLayout=tableLayout;fixedRows=1;rowLines=0;fontStyle=1;align=center;resizeLast=1;" vertex="1" parent="1">
          <mxGeometry x="960" y="1300" width="265" height="240" as="geometry">
            <mxRectangle x="120" y="120" width="100" height="30" as="alternateBounds" />
          </mxGeometry>
        </mxCell>
        <mxCell id="c2UIK6nuIW9470Jx_kau-36" value="" style="shape=partialRectangle;collapsible=0;dropTarget=0;pointerEvents=0;fillColor=none;points=[[0,0.5],[1,0.5]];portConstraint=eastwest;top=0;left=0;right=0;bottom=1;" vertex="1" parent="c2UIK6nuIW9470Jx_kau-35">
          <mxGeometry y="30" width="265" height="30" as="geometry" />
        </mxCell>
        <mxCell id="c2UIK6nuIW9470Jx_kau-37" value="PK" style="shape=partialRectangle;overflow=hidden;connectable=0;fillColor=none;top=0;left=0;bottom=0;right=0;fontStyle=1;" vertex="1" parent="c2UIK6nuIW9470Jx_kau-36">
          <mxGeometry width="20" height="30" as="geometry">
            <mxRectangle width="20" height="30" as="alternateBounds" />
          </mxGeometry>
        </mxCell>
        <mxCell id="c2UIK6nuIW9470Jx_kau-38" value="reservation_id" style="shape=partialRectangle;overflow=hidden;connectable=0;fillColor=none;top=0;left=0;bottom=0;right=0;align=left;spacingLeft=6;fontStyle=5;" vertex="1" parent="c2UIK6nuIW9470Jx_kau-36">
          <mxGeometry x="20" width="245" height="30" as="geometry">
            <mxRectangle width="245" height="30" as="alternateBounds" />
          </mxGeometry>
        </mxCell>
        <mxCell id="c2UIK6nuIW9470Jx_kau-39" value="" style="shape=partialRectangle;collapsible=0;dropTarget=0;pointerEvents=0;fillColor=none;points=[[0,0.5],[1,0.5]];portConstraint=eastwest;top=0;left=0;right=0;bottom=0;" vertex="1" parent="c2UIK6nuIW9470Jx_kau-35">
          <mxGeometry y="60" width="265" height="180" as="geometry" />
        </mxCell>
        <mxCell id="c2UIK6nuIW9470Jx_kau-40" value="" style="shape=partialRectangle;overflow=hidden;connectable=0;fillColor=none;top=0;left=0;bottom=0;right=0;" vertex="1" parent="c2UIK6nuIW9470Jx_kau-39">
          <mxGeometry width="20" height="180" as="geometry">
            <mxRectangle width="20" height="180" as="alternateBounds" />
          </mxGeometry>
        </mxCell>
        <mxCell id="c2UIK6nuIW9470Jx_kau-41" value="&lt;fk&gt;user_id&#xa;&lt;fk&gt;ticket_id&#xa;reservation_time&#xa;expireTime&#xa;statuse&#xa;&#xa;" style="shape=partialRectangle;overflow=hidden;connectable=0;fillColor=none;top=0;left=0;bottom=0;right=0;align=left;spacingLeft=6;" vertex="1" parent="c2UIK6nuIW9470Jx_kau-39">
          <mxGeometry x="20" width="245" height="180" as="geometry">
            <mxRectangle width="245" height="180" as="alternateBounds" />
          </mxGeometry>
        </mxCell>
        <mxCell id="c2UIK6nuIW9470Jx_kau-42" value="" style="endArrow=none;html=1;rounded=0;exitX=0.5;exitY=0;exitDx=0;exitDy=0;entryX=0.5;entryY=1;entryDx=0;entryDy=0;" edge="1" parent="1" source="c2UIK6nuIW9470Jx_kau-35" target="c2UIK6nuIW9470Jx_kau-44">
          <mxGeometry width="50" height="50" relative="1" as="geometry">
            <mxPoint x="1060" y="1150" as="sourcePoint" />
            <mxPoint x="1270" y="1070" as="targetPoint" />
          </mxGeometry>
        </mxCell>
        <mxCell id="c2UIK6nuIW9470Jx_kau-46" value="1" style="edgeLabel;html=1;align=center;verticalAlign=middle;resizable=0;points=[];" vertex="1" connectable="0" parent="c2UIK6nuIW9470Jx_kau-42">
          <mxGeometry x="0.3838" y="3" relative="1" as="geometry">
            <mxPoint as="offset" />
          </mxGeometry>
        </mxCell>
        <mxCell id="c2UIK6nuIW9470Jx_kau-43" value="" style="endArrow=none;html=1;rounded=0;exitX=0;exitY=0.5;exitDx=0;exitDy=0;entryX=0.449;entryY=0.998;entryDx=0;entryDy=0;entryPerimeter=0;" edge="1" parent="1" source="c2UIK6nuIW9470Jx_kau-44" target="c2UIK6nuIW9470Jx_kau-18">
          <mxGeometry width="50" height="50" relative="1" as="geometry">
            <mxPoint x="1119" y="1200" as="sourcePoint" />
            <mxPoint x="1280" y="1080" as="targetPoint" />
          </mxGeometry>
        </mxCell>
        <mxCell id="c2UIK6nuIW9470Jx_kau-45" value="1" style="edgeLabel;html=1;align=center;verticalAlign=middle;resizable=0;points=[];" vertex="1" connectable="0" parent="c2UIK6nuIW9470Jx_kau-43">
          <mxGeometry x="0.2549" y="1" relative="1" as="geometry">
            <mxPoint as="offset" />
          </mxGeometry>
        </mxCell>
        <mxCell id="c2UIK6nuIW9470Jx_kau-44" value="devote" style="rhombus;whiteSpace=wrap;html=1;" vertex="1" parent="1">
          <mxGeometry x="920" y="1130" width="80" height="80" as="geometry" />
        </mxCell>
        <mxCell id="c2UIK6nuIW9470Jx_kau-52" value="payment" style="shape=table;startSize=30;container=1;collapsible=1;childLayout=tableLayout;fixedRows=1;rowLines=0;fontStyle=1;align=center;resizeLast=1;" vertex="1" parent="1">
          <mxGeometry x="1690" y="830" width="265" height="240" as="geometry">
            <mxRectangle x="120" y="120" width="100" height="30" as="alternateBounds" />
          </mxGeometry>
        </mxCell>
        <mxCell id="c2UIK6nuIW9470Jx_kau-53" value="" style="shape=partialRectangle;collapsible=0;dropTarget=0;pointerEvents=0;fillColor=none;points=[[0,0.5],[1,0.5]];portConstraint=eastwest;top=0;left=0;right=0;bottom=1;" vertex="1" parent="c2UIK6nuIW9470Jx_kau-52">
          <mxGeometry y="30" width="265" height="30" as="geometry" />
        </mxCell>
        <mxCell id="c2UIK6nuIW9470Jx_kau-54" value="PK" style="shape=partialRectangle;overflow=hidden;connectable=0;fillColor=none;top=0;left=0;bottom=0;right=0;fontStyle=1;" vertex="1" parent="c2UIK6nuIW9470Jx_kau-53">
          <mxGeometry width="20" height="30" as="geometry">
            <mxRectangle width="20" height="30" as="alternateBounds" />
          </mxGeometry>
        </mxCell>
        <mxCell id="c2UIK6nuIW9470Jx_kau-55" value="payment_id" style="shape=partialRectangle;overflow=hidden;connectable=0;fillColor=none;top=0;left=0;bottom=0;right=0;align=left;spacingLeft=6;fontStyle=5;" vertex="1" parent="c2UIK6nuIW9470Jx_kau-53">
          <mxGeometry x="20" width="245" height="30" as="geometry">
            <mxRectangle width="245" height="30" as="alternateBounds" />
          </mxGeometry>
        </mxCell>
        <mxCell id="c2UIK6nuIW9470Jx_kau-56" value="" style="shape=partialRectangle;collapsible=0;dropTarget=0;pointerEvents=0;fillColor=none;points=[[0,0.5],[1,0.5]];portConstraint=eastwest;top=0;left=0;right=0;bottom=0;" vertex="1" parent="c2UIK6nuIW9470Jx_kau-52">
          <mxGeometry y="60" width="265" height="180" as="geometry" />
        </mxCell>
        <mxCell id="c2UIK6nuIW9470Jx_kau-57" value="" style="shape=partialRectangle;overflow=hidden;connectable=0;fillColor=none;top=0;left=0;bottom=0;right=0;" vertex="1" parent="c2UIK6nuIW9470Jx_kau-56">
          <mxGeometry width="20" height="180" as="geometry">
            <mxRectangle width="20" height="180" as="alternateBounds" />
          </mxGeometry>
        </mxCell>
        <mxCell id="c2UIK6nuIW9470Jx_kau-58" value="&lt;fk&gt;user_id&#xa;&lt;fk&gt;reservation_id&#xa;value&#xa;method&#xa;statuse&#xa;time&#xa;&#xa;&#xa;" style="shape=partialRectangle;overflow=hidden;connectable=0;fillColor=none;top=0;left=0;bottom=0;right=0;align=left;spacingLeft=6;" vertex="1" parent="c2UIK6nuIW9470Jx_kau-56">
          <mxGeometry x="20" width="245" height="180" as="geometry">
            <mxRectangle width="245" height="180" as="alternateBounds" />
          </mxGeometry>
        </mxCell>
        <mxCell id="c2UIK6nuIW9470Jx_kau-59" value="" style="endArrow=none;html=1;rounded=0;exitX=0.992;exitY=0.424;exitDx=0;exitDy=0;exitPerimeter=0;entryX=0;entryY=0.5;entryDx=0;entryDy=0;" edge="1" parent="1" source="c2UIK6nuIW9470Jx_kau-39" target="c2UIK6nuIW9470Jx_kau-61">
          <mxGeometry width="50" height="50" relative="1" as="geometry">
            <mxPoint x="1103" y="1310" as="sourcePoint" />
            <mxPoint x="1390" y="1290" as="targetPoint" />
            <Array as="points" />
          </mxGeometry>
        </mxCell>
        <mxCell id="c2UIK6nuIW9470Jx_kau-60" value="N" style="edgeLabel;html=1;align=center;verticalAlign=middle;resizable=0;points=[];" vertex="1" connectable="0" parent="c2UIK6nuIW9470Jx_kau-59">
          <mxGeometry x="0.3838" y="3" relative="1" as="geometry">
            <mxPoint as="offset" />
          </mxGeometry>
        </mxCell>
        <mxCell id="c2UIK6nuIW9470Jx_kau-61" value="link" style="rhombus;whiteSpace=wrap;html=1;" vertex="1" parent="1">
          <mxGeometry x="1450" y="1230" width="80" height="80" as="geometry" />
        </mxCell>
        <mxCell id="c2UIK6nuIW9470Jx_kau-62" value="" style="endArrow=none;html=1;rounded=0;exitX=0.5;exitY=0;exitDx=0;exitDy=0;entryX=0.444;entryY=1.018;entryDx=0;entryDy=0;entryPerimeter=0;" edge="1" parent="1" source="c2UIK6nuIW9470Jx_kau-61" target="c2UIK6nuIW9470Jx_kau-56">
          <mxGeometry width="50" height="50" relative="1" as="geometry">
            <mxPoint x="1660" y="1276" as="sourcePoint" />
            <mxPoint x="1887" y="1110" as="targetPoint" />
            <Array as="points" />
          </mxGeometry>
        </mxCell>
        <mxCell id="c2UIK6nuIW9470Jx_kau-63" value="1" style="edgeLabel;html=1;align=center;verticalAlign=middle;resizable=0;points=[];" vertex="1" connectable="0" parent="c2UIK6nuIW9470Jx_kau-62">
          <mxGeometry x="0.3838" y="3" relative="1" as="geometry">
            <mxPoint as="offset" />
          </mxGeometry>
        </mxCell>
        <mxCell id="c2UIK6nuIW9470Jx_kau-64" value="" style="endArrow=none;html=1;rounded=0;exitX=0.5;exitY=0;exitDx=0;exitDy=0;entryX=0;entryY=0.5;entryDx=0;entryDy=0;" edge="1" parent="1" source="c2UIK6nuIW9470Jx_kau-3" target="c2UIK6nuIW9470Jx_kau-66">
          <mxGeometry width="50" height="50" relative="1" as="geometry">
            <mxPoint x="466.5" y="790" as="sourcePoint" />
            <mxPoint x="1720" y="710" as="targetPoint" />
            <Array as="points">
              <mxPoint x="680" y="820" />
              <mxPoint x="1500" y="780" />
              <mxPoint x="1610" y="750" />
            </Array>
          </mxGeometry>
        </mxCell>
        <mxCell id="c2UIK6nuIW9470Jx_kau-70" value="N&lt;div&gt;&lt;br&gt;&lt;/div&gt;" style="edgeLabel;html=1;align=center;verticalAlign=middle;resizable=0;points=[];" vertex="1" connectable="0" parent="c2UIK6nuIW9470Jx_kau-64">
          <mxGeometry x="0.9117" y="-1" relative="1" as="geometry">
            <mxPoint as="offset" />
          </mxGeometry>
        </mxCell>
        <mxCell id="c2UIK6nuIW9470Jx_kau-66" value="Do" style="rhombus;whiteSpace=wrap;html=1;" vertex="1" parent="1">
          <mxGeometry x="1730" y="640" width="80" height="80" as="geometry" />
        </mxCell>
        <mxCell id="c2UIK6nuIW9470Jx_kau-67" value="" style="endArrow=none;html=1;rounded=0;exitX=1;exitY=0.5;exitDx=0;exitDy=0;entryX=0.5;entryY=0;entryDx=0;entryDy=0;" edge="1" parent="1" source="c2UIK6nuIW9470Jx_kau-66" target="c2UIK6nuIW9470Jx_kau-52">
          <mxGeometry width="50" height="50" relative="1" as="geometry">
            <mxPoint x="1860" y="712" as="sourcePoint" />
            <mxPoint x="1969" y="600" as="targetPoint" />
          </mxGeometry>
        </mxCell>
        <mxCell id="c2UIK6nuIW9470Jx_kau-68" value="1" style="edgeLabel;html=1;align=center;verticalAlign=middle;resizable=0;points=[];" vertex="1" connectable="0" parent="c2UIK6nuIW9470Jx_kau-67">
          <mxGeometry x="0.2549" y="1" relative="1" as="geometry">
            <mxPoint as="offset" />
          </mxGeometry>
        </mxCell>
        <mxCell id="c2UIK6nuIW9470Jx_kau-71" value="report" style="shape=table;startSize=30;container=1;collapsible=1;childLayout=tableLayout;fixedRows=1;rowLines=0;fontStyle=1;align=center;resizeLast=1;" vertex="1" parent="1">
          <mxGeometry x="215" y="400" width="265" height="250" as="geometry">
            <mxRectangle x="120" y="120" width="100" height="30" as="alternateBounds" />
          </mxGeometry>
        </mxCell>
        <mxCell id="c2UIK6nuIW9470Jx_kau-72" value="" style="shape=partialRectangle;collapsible=0;dropTarget=0;pointerEvents=0;fillColor=none;points=[[0,0.5],[1,0.5]];portConstraint=eastwest;top=0;left=0;right=0;bottom=1;" vertex="1" parent="c2UIK6nuIW9470Jx_kau-71">
          <mxGeometry y="30" width="265" height="30" as="geometry" />
        </mxCell>
        <mxCell id="c2UIK6nuIW9470Jx_kau-73" value="PK" style="shape=partialRectangle;overflow=hidden;connectable=0;fillColor=none;top=0;left=0;bottom=0;right=0;fontStyle=1;" vertex="1" parent="c2UIK6nuIW9470Jx_kau-72">
          <mxGeometry width="40" height="30" as="geometry">
            <mxRectangle width="40" height="30" as="alternateBounds" />
          </mxGeometry>
        </mxCell>
        <mxCell id="c2UIK6nuIW9470Jx_kau-74" value="report_id" style="shape=partialRectangle;overflow=hidden;connectable=0;fillColor=none;top=0;left=0;bottom=0;right=0;align=left;spacingLeft=6;fontStyle=5;" vertex="1" parent="c2UIK6nuIW9470Jx_kau-72">
          <mxGeometry x="40" width="225" height="30" as="geometry">
            <mxRectangle width="225" height="30" as="alternateBounds" />
          </mxGeometry>
        </mxCell>
        <mxCell id="c2UIK6nuIW9470Jx_kau-75" value="" style="shape=partialRectangle;collapsible=0;dropTarget=0;pointerEvents=0;fillColor=none;points=[[0,0.5],[1,0.5]];portConstraint=eastwest;top=0;left=0;right=0;bottom=0;" vertex="1" parent="c2UIK6nuIW9470Jx_kau-71">
          <mxGeometry y="60" width="265" height="160" as="geometry" />
        </mxCell>
        <mxCell id="c2UIK6nuIW9470Jx_kau-76" value="" style="shape=partialRectangle;overflow=hidden;connectable=0;fillColor=none;top=0;left=0;bottom=0;right=0;" vertex="1" parent="c2UIK6nuIW9470Jx_kau-75">
          <mxGeometry width="40" height="160" as="geometry">
            <mxRectangle width="40" height="160" as="alternateBounds" />
          </mxGeometry>
        </mxCell>
        <mxCell id="c2UIK6nuIW9470Jx_kau-77" value="&lt;fk&gt;user_id&#xa;&lt;fk&gt;ticket_id&#xa;reportType&#xa;description&#xa;statuse" style="shape=partialRectangle;overflow=hidden;connectable=0;fillColor=none;top=0;left=0;bottom=0;right=0;align=left;spacingLeft=6;" vertex="1" parent="c2UIK6nuIW9470Jx_kau-75">
          <mxGeometry x="40" width="225" height="160" as="geometry">
            <mxRectangle width="225" height="160" as="alternateBounds" />
          </mxGeometry>
        </mxCell>
        <mxCell id="c2UIK6nuIW9470Jx_kau-85" value="vehicle" style="shape=table;startSize=30;container=1;collapsible=1;childLayout=tableLayout;fixedRows=1;rowLines=0;fontStyle=1;align=center;resizeLast=1;" vertex="1" parent="1">
          <mxGeometry x="440" y="1480" width="265" height="240" as="geometry">
            <mxRectangle x="120" y="120" width="100" height="30" as="alternateBounds" />
          </mxGeometry>
        </mxCell>
        <mxCell id="c2UIK6nuIW9470Jx_kau-86" value="" style="shape=partialRectangle;collapsible=0;dropTarget=0;pointerEvents=0;fillColor=none;points=[[0,0.5],[1,0.5]];portConstraint=eastwest;top=0;left=0;right=0;bottom=1;" vertex="1" parent="c2UIK6nuIW9470Jx_kau-85">
          <mxGeometry y="30" width="265" height="30" as="geometry" />
        </mxCell>
        <mxCell id="c2UIK6nuIW9470Jx_kau-87" value="PK" style="shape=partialRectangle;overflow=hidden;connectable=0;fillColor=none;top=0;left=0;bottom=0;right=0;fontStyle=1;" vertex="1" parent="c2UIK6nuIW9470Jx_kau-86">
          <mxGeometry width="20" height="30" as="geometry">
            <mxRectangle width="20" height="30" as="alternateBounds" />
          </mxGeometry>
        </mxCell>
        <mxCell id="c2UIK6nuIW9470Jx_kau-88" value="vehicle_id" style="shape=partialRectangle;overflow=hidden;connectable=0;fillColor=none;top=0;left=0;bottom=0;right=0;align=left;spacingLeft=6;fontStyle=5;" vertex="1" parent="c2UIK6nuIW9470Jx_kau-86">
          <mxGeometry x="20" width="245" height="30" as="geometry">
            <mxRectangle width="245" height="30" as="alternateBounds" />
          </mxGeometry>
        </mxCell>
        <mxCell id="c2UIK6nuIW9470Jx_kau-89" value="" style="shape=partialRectangle;collapsible=0;dropTarget=0;pointerEvents=0;fillColor=none;points=[[0,0.5],[1,0.5]];portConstraint=eastwest;top=0;left=0;right=0;bottom=0;" vertex="1" parent="c2UIK6nuIW9470Jx_kau-85">
          <mxGeometry y="60" width="265" height="180" as="geometry" />
        </mxCell>
        <mxCell id="c2UIK6nuIW9470Jx_kau-90" value="" style="shape=partialRectangle;overflow=hidden;connectable=0;fillColor=none;top=0;left=0;bottom=0;right=0;" vertex="1" parent="c2UIK6nuIW9470Jx_kau-89">
          <mxGeometry width="20" height="180" as="geometry">
            <mxRectangle width="20" height="180" as="alternateBounds" />
          </mxGeometry>
        </mxCell>
        <mxCell id="c2UIK6nuIW9470Jx_kau-91" value="companyName&#xa;capacity&#xa;Origin&#xa;Destination&#xa;Stations&#xa;Facilities" style="shape=partialRectangle;overflow=hidden;connectable=0;fillColor=none;top=0;left=0;bottom=0;right=0;align=left;spacingLeft=6;" vertex="1" parent="c2UIK6nuIW9470Jx_kau-89">
          <mxGeometry x="20" width="245" height="180" as="geometry">
            <mxRectangle width="245" height="180" as="alternateBounds" />
          </mxGeometry>
        </mxCell>
        <mxCell id="c2UIK6nuIW9470Jx_kau-95" value="bus" style="shape=table;startSize=30;container=1;collapsible=1;childLayout=tableLayout;fixedRows=1;rowLines=0;fontStyle=1;align=center;resizeLast=1;" vertex="1" parent="1">
          <mxGeometry x="880" y="1860" width="265" height="240" as="geometry">
            <mxRectangle x="120" y="120" width="100" height="30" as="alternateBounds" />
          </mxGeometry>
        </mxCell>
        <mxCell id="c2UIK6nuIW9470Jx_kau-96" value="" style="shape=partialRectangle;collapsible=0;dropTarget=0;pointerEvents=0;fillColor=none;points=[[0,0.5],[1,0.5]];portConstraint=eastwest;top=0;left=0;right=0;bottom=1;" vertex="1" parent="c2UIK6nuIW9470Jx_kau-95">
          <mxGeometry y="30" width="265" height="30" as="geometry" />
        </mxCell>
        <mxCell id="c2UIK6nuIW9470Jx_kau-97" value="PK" style="shape=partialRectangle;overflow=hidden;connectable=0;fillColor=none;top=0;left=0;bottom=0;right=0;fontStyle=1;" vertex="1" parent="c2UIK6nuIW9470Jx_kau-96">
          <mxGeometry width="20" height="30" as="geometry">
            <mxRectangle width="20" height="30" as="alternateBounds" />
          </mxGeometry>
        </mxCell>
        <mxCell id="c2UIK6nuIW9470Jx_kau-98" value="bus_id" style="shape=partialRectangle;overflow=hidden;connectable=0;fillColor=none;top=0;left=0;bottom=0;right=0;align=left;spacingLeft=6;fontStyle=5;" vertex="1" parent="c2UIK6nuIW9470Jx_kau-96">
          <mxGeometry x="20" width="245" height="30" as="geometry">
            <mxRectangle width="245" height="30" as="alternateBounds" />
          </mxGeometry>
        </mxCell>
        <mxCell id="c2UIK6nuIW9470Jx_kau-99" value="" style="shape=partialRectangle;collapsible=0;dropTarget=0;pointerEvents=0;fillColor=none;points=[[0,0.5],[1,0.5]];portConstraint=eastwest;top=0;left=0;right=0;bottom=0;" vertex="1" parent="c2UIK6nuIW9470Jx_kau-95">
          <mxGeometry y="60" width="265" height="180" as="geometry" />
        </mxCell>
        <mxCell id="c2UIK6nuIW9470Jx_kau-100" value="" style="shape=partialRectangle;overflow=hidden;connectable=0;fillColor=none;top=0;left=0;bottom=0;right=0;" vertex="1" parent="c2UIK6nuIW9470Jx_kau-99">
          <mxGeometry width="20" height="180" as="geometry">
            <mxRectangle width="20" height="180" as="alternateBounds" />
          </mxGeometry>
        </mxCell>
        <mxCell id="c2UIK6nuIW9470Jx_kau-101" value="&lt;fk&gt;vehicle_id&#xa;class&#xa;sitState" style="shape=partialRectangle;overflow=hidden;connectable=0;fillColor=none;top=0;left=0;bottom=0;right=0;align=left;spacingLeft=6;" vertex="1" parent="c2UIK6nuIW9470Jx_kau-99">
          <mxGeometry x="20" width="245" height="180" as="geometry">
            <mxRectangle width="245" height="180" as="alternateBounds" />
          </mxGeometry>
        </mxCell>
        <mxCell id="c2UIK6nuIW9470Jx_kau-102" value="flight" style="shape=table;startSize=30;container=1;collapsible=1;childLayout=tableLayout;fixedRows=1;rowLines=0;fontStyle=1;align=center;resizeLast=1;" vertex="1" parent="1">
          <mxGeometry x="490" y="1950" width="265" height="240" as="geometry">
            <mxRectangle x="120" y="120" width="100" height="30" as="alternateBounds" />
          </mxGeometry>
        </mxCell>
        <mxCell id="c2UIK6nuIW9470Jx_kau-103" value="" style="shape=partialRectangle;collapsible=0;dropTarget=0;pointerEvents=0;fillColor=none;points=[[0,0.5],[1,0.5]];portConstraint=eastwest;top=0;left=0;right=0;bottom=1;" vertex="1" parent="c2UIK6nuIW9470Jx_kau-102">
          <mxGeometry y="30" width="265" height="30" as="geometry" />
        </mxCell>
        <mxCell id="c2UIK6nuIW9470Jx_kau-104" value="PK" style="shape=partialRectangle;overflow=hidden;connectable=0;fillColor=none;top=0;left=0;bottom=0;right=0;fontStyle=1;" vertex="1" parent="c2UIK6nuIW9470Jx_kau-103">
          <mxGeometry width="20" height="30" as="geometry">
            <mxRectangle width="20" height="30" as="alternateBounds" />
          </mxGeometry>
        </mxCell>
        <mxCell id="c2UIK6nuIW9470Jx_kau-105" value="flight_id" style="shape=partialRectangle;overflow=hidden;connectable=0;fillColor=none;top=0;left=0;bottom=0;right=0;align=left;spacingLeft=6;fontStyle=5;" vertex="1" parent="c2UIK6nuIW9470Jx_kau-103">
          <mxGeometry x="20" width="245" height="30" as="geometry">
            <mxRectangle width="245" height="30" as="alternateBounds" />
          </mxGeometry>
        </mxCell>
        <mxCell id="c2UIK6nuIW9470Jx_kau-106" value="" style="shape=partialRectangle;collapsible=0;dropTarget=0;pointerEvents=0;fillColor=none;points=[[0,0.5],[1,0.5]];portConstraint=eastwest;top=0;left=0;right=0;bottom=0;" vertex="1" parent="c2UIK6nuIW9470Jx_kau-102">
          <mxGeometry y="60" width="265" height="180" as="geometry" />
        </mxCell>
        <mxCell id="c2UIK6nuIW9470Jx_kau-107" value="" style="shape=partialRectangle;overflow=hidden;connectable=0;fillColor=none;top=0;left=0;bottom=0;right=0;" vertex="1" parent="c2UIK6nuIW9470Jx_kau-106">
          <mxGeometry width="20" height="180" as="geometry">
            <mxRectangle width="20" height="180" as="alternateBounds" />
          </mxGeometry>
        </mxCell>
        <mxCell id="c2UIK6nuIW9470Jx_kau-108" value="&lt;fk&gt;vehicle_id&#xa;class&#xa;flightNumber&#xa;stops" style="shape=partialRectangle;overflow=hidden;connectable=0;fillColor=none;top=0;left=0;bottom=0;right=0;align=left;spacingLeft=6;" vertex="1" parent="c2UIK6nuIW9470Jx_kau-106">
          <mxGeometry x="20" width="245" height="180" as="geometry">
            <mxRectangle width="245" height="180" as="alternateBounds" />
          </mxGeometry>
        </mxCell>
        <mxCell id="c2UIK6nuIW9470Jx_kau-109" value="train" style="shape=table;startSize=30;container=1;collapsible=1;childLayout=tableLayout;fixedRows=1;rowLines=0;fontStyle=1;align=center;resizeLast=1;" vertex="1" parent="1">
          <mxGeometry x="130" y="1880" width="265" height="240" as="geometry">
            <mxRectangle x="120" y="120" width="100" height="30" as="alternateBounds" />
          </mxGeometry>
        </mxCell>
        <mxCell id="c2UIK6nuIW9470Jx_kau-110" value="" style="shape=partialRectangle;collapsible=0;dropTarget=0;pointerEvents=0;fillColor=none;points=[[0,0.5],[1,0.5]];portConstraint=eastwest;top=0;left=0;right=0;bottom=1;" vertex="1" parent="c2UIK6nuIW9470Jx_kau-109">
          <mxGeometry y="30" width="265" height="30" as="geometry" />
        </mxCell>
        <mxCell id="c2UIK6nuIW9470Jx_kau-111" value="PK" style="shape=partialRectangle;overflow=hidden;connectable=0;fillColor=none;top=0;left=0;bottom=0;right=0;fontStyle=1;" vertex="1" parent="c2UIK6nuIW9470Jx_kau-110">
          <mxGeometry width="20" height="30" as="geometry">
            <mxRectangle width="20" height="30" as="alternateBounds" />
          </mxGeometry>
        </mxCell>
        <mxCell id="c2UIK6nuIW9470Jx_kau-112" value="train_id" style="shape=partialRectangle;overflow=hidden;connectable=0;fillColor=none;top=0;left=0;bottom=0;right=0;align=left;spacingLeft=6;fontStyle=5;" vertex="1" parent="c2UIK6nuIW9470Jx_kau-110">
          <mxGeometry x="20" width="245" height="30" as="geometry">
            <mxRectangle width="245" height="30" as="alternateBounds" />
          </mxGeometry>
        </mxCell>
        <mxCell id="c2UIK6nuIW9470Jx_kau-113" value="" style="shape=partialRectangle;collapsible=0;dropTarget=0;pointerEvents=0;fillColor=none;points=[[0,0.5],[1,0.5]];portConstraint=eastwest;top=0;left=0;right=0;bottom=0;" vertex="1" parent="c2UIK6nuIW9470Jx_kau-109">
          <mxGeometry y="60" width="265" height="180" as="geometry" />
        </mxCell>
        <mxCell id="c2UIK6nuIW9470Jx_kau-114" value="" style="shape=partialRectangle;overflow=hidden;connectable=0;fillColor=none;top=0;left=0;bottom=0;right=0;" vertex="1" parent="c2UIK6nuIW9470Jx_kau-113">
          <mxGeometry width="20" height="180" as="geometry">
            <mxRectangle width="20" height="180" as="alternateBounds" />
          </mxGeometry>
        </mxCell>
        <mxCell id="c2UIK6nuIW9470Jx_kau-115" value="&lt;fk&gt;vehicle_id&#xa;component&#xa;stars&#xa;stops" style="shape=partialRectangle;overflow=hidden;connectable=0;fillColor=none;top=0;left=0;bottom=0;right=0;align=left;spacingLeft=6;" vertex="1" parent="c2UIK6nuIW9470Jx_kau-113">
          <mxGeometry x="20" width="245" height="180" as="geometry">
            <mxRectangle width="245" height="180" as="alternateBounds" />
          </mxGeometry>
        </mxCell>
        <mxCell id="c2UIK6nuIW9470Jx_kau-116" value="" style="endArrow=classic;html=1;rounded=0;entryX=0.5;entryY=0;entryDx=0;entryDy=0;" edge="1" parent="1" target="c2UIK6nuIW9470Jx_kau-109">
          <mxGeometry width="50" height="50" relative="1" as="geometry">
            <mxPoint x="570" y="1720" as="sourcePoint" />
            <mxPoint x="670" y="1750" as="targetPoint" />
          </mxGeometry>
        </mxCell>
        <mxCell id="c2UIK6nuIW9470Jx_kau-117" value="" style="endArrow=classic;html=1;rounded=0;entryX=0.5;entryY=0;entryDx=0;entryDy=0;" edge="1" parent="1" target="c2UIK6nuIW9470Jx_kau-102">
          <mxGeometry width="50" height="50" relative="1" as="geometry">
            <mxPoint x="570" y="1720" as="sourcePoint" />
            <mxPoint x="273" y="1890" as="targetPoint" />
          </mxGeometry>
        </mxCell>
        <mxCell id="c2UIK6nuIW9470Jx_kau-118" value="" style="endArrow=classic;html=1;rounded=0;entryX=0.5;entryY=0;entryDx=0;entryDy=0;" edge="1" parent="1" target="c2UIK6nuIW9470Jx_kau-95">
          <mxGeometry width="50" height="50" relative="1" as="geometry">
            <mxPoint x="570" y="1720" as="sourcePoint" />
            <mxPoint x="283" y="1900" as="targetPoint" />
          </mxGeometry>
        </mxCell>
        <mxCell id="c2UIK6nuIW9470Jx_kau-119" value="" style="endArrow=none;html=1;rounded=0;exitX=0.5;exitY=0;exitDx=0;exitDy=0;entryX=0;entryY=0.5;entryDx=0;entryDy=0;" edge="1" parent="1" source="c2UIK6nuIW9470Jx_kau-85" target="c2UIK6nuIW9470Jx_kau-18">
          <mxGeometry width="50" height="50" relative="1" as="geometry">
            <mxPoint x="930" y="1180" as="sourcePoint" />
            <mxPoint x="1039" y="1068" as="targetPoint" />
          </mxGeometry>
        </mxCell>
        <mxCell id="c2UIK6nuIW9470Jx_kau-120" value="1" style="edgeLabel;html=1;align=center;verticalAlign=middle;resizable=0;points=[];" vertex="1" connectable="0" parent="c2UIK6nuIW9470Jx_kau-119">
          <mxGeometry x="0.2549" y="1" relative="1" as="geometry">
            <mxPoint as="offset" />
          </mxGeometry>
        </mxCell>
      </root>
    </mxGraphModel>
  </diagram>
</mxfile>
